<?xml version="1.0" standalone="no"?>
<!DOCTYPE svg PUBLIC "-//W3C//DTD SVG 20010904//EN"
 "http://www.w3.org/TR/2001/REC-SVG-20010904/DTD/svg10.dtd">
<svg version="1.0" xmlns="http://www.w3.org/2000/svg"
 width="260.000000pt" height="260.000000pt" viewBox="0 0 260.000000 260.000000"
 preserveAspectRatio="xMidYMid meet">
<metadata>
Created by potrace 1.11, written by Peter Selinger 2001-2013
</metadata>
<g transform="translate(0.000000,260.000000) scale(0.100000,-0.100000)"
fill="#000000" stroke="none">
<path d="M915 2087 c-91 -30 -144 -76 -186 -157 -20 -38 -23 -60 -23 -145 0
-89 3 -105 27 -150 33 -62 43 -74 87 -107 55 -40 121 -57 208 -54 191 7 296
128 288 331 -5 125 -61 217 -162 264 -58 28 -182 37 -239 18z m163 -122 c84
-34 125 -158 88 -263 -35 -99 -135 -138 -232 -92 -51 25 -72 55 -87 125 -34
165 88 287 231 230z"/>
<path d="M198 2079 c-15 -4 -29 -4 -32 -1 -3 3 -6 -130 -6 -296 l0 -302 70 0
70 0 0 100 0 100 53 1 c28 1 55 1 59 0 18 -2 116 34 142 52 36 25 66 90 66
142 0 150 -90 215 -298 213 -53 -1 -109 -5 -124 -9z m238 -125 c26 -12 35 -24
40 -52 4 -19 2 -42 -3 -51 -16 -27 -76 -51 -125 -51 l-48 0 0 85 0 85 51 0
c28 0 66 -7 85 -16z"/>
<path d="M1430 1785 l0 -305 70 0 70 0 0 125 c0 69 2 125 5 125 12 0 107 -108
157 -177 l52 -73 84 0 84 0 -27 38 c-58 76 -136 172 -189 229 l-54 59 41 45
c23 24 82 88 130 142 l89 97 -87 0 -87 0 -62 -67 c-34 -38 -79 -86 -99 -108
l-36 -40 -1 108 0 107 -70 0 -70 0 0 -305z"/>
<path d="M2030 1785 l0 -305 215 0 215 0 0 60 0 60 -145 0 -145 0 0 70 0 70
120 0 120 0 0 60 0 60 -120 0 -120 0 0 55 0 55 135 0 135 0 0 60 0 60 -205 0
-205 0 0 -305z"/>
<path d="M357 1099 c-139 -33 -219 -138 -224 -291 -5 -166 62 -274 192 -313
75 -23 252 -9 303 23 9 7 9 19 -4 58 -9 27 -18 50 -19 52 -1 1 -31 -5 -66 -14
-82 -21 -160 -13 -205 21 -90 68 -81 269 14 331 35 23 129 27 190 8 26 -7 50
-14 53 -14 3 0 11 18 18 41 7 23 15 47 17 54 8 19 -99 51 -171 53 -33 0 -77
-4 -98 -9z"/>
<path d="M911 1048 c-55 -125 -115 -271 -161 -393 -27 -72 -52 -139 -56 -148
-5 -15 2 -17 63 -17 78 0 79 1 103 89 l11 42 126 -3 125 -3 25 -62 25 -63 70
0 c63 0 69 2 63 18 -4 9 -26 69 -50 134 -38 100 -69 179 -104 263 -5 11 -27
59 -50 108 l-40 87 -64 0 -63 0 -23 -52z m127 -201 l40 -107 -80 0 c-72 0 -80
2 -75 18 13 43 71 201 73 199 2 -1 21 -51 42 -110z"/>
</g>
</svg>
